<?xml version="1.0" standalone="no"?>
<!DOCTYPE svg PUBLIC "-//W3C//DTD SVG 20010904//EN"
 "http://www.w3.org/TR/2001/REC-SVG-20010904/DTD/svg10.dtd">
<svg version="1.0" xmlns="http://www.w3.org/2000/svg"
 width="16.000000pt" height="16.000000pt" viewBox="0 0 16.000000 16.000000"
 preserveAspectRatio="xMidYMid meet">
<metadata>
Created by potrace 1.11, written by Peter Selinger 2001-2013
</metadata>
<g transform="translate(0.000000,16.000000) scale(0.003774,-0.003774)"
fill="#000000" stroke="none">
<path d="M4085 4121 c-28 -6 -31 -10 -37 -61 -4 -30 -3 -80 2 -110 10 -60 17
-126 25 -235 13 -192 14 -236 5 -230 -6 3 -10 -3 -10 -15 0 -12 4 -19 8 -16 5
3 6 -8 4 -24 -3 -21 -8 -27 -19 -23 -13 5 -15 -1 -11 -30 2 -20 0 -33 -6 -30
-5 3 -7 -5 -4 -21 3 -14 1 -26 -4 -26 -5 0 -6 -5 -3 -10 9 -14 -5 -51 -16 -44
-6 3 -8 -4 -5 -18 6 -36 -56 -183 -77 -182 -35 3 -38 4 -32 14 3 6 1 10 -4 10
-6 0 -11 6 -11 13 0 7 -9 23 -20 35 -11 12 -20 24 -20 28 0 3 -15 25 -32 48
-18 22 -36 46 -40 51 -97 132 -384 405 -426 405 -6 0 -12 3 -14 8 -6 13 -72
59 -157 106 -67 38 -86 45 -93 34 -8 -10 -9 -9 -5 3 4 13 -16 26 -89 58 -52
23 -98 39 -103 36 -5 -3 -11 0 -13 5 -2 6 -13 12 -26 13 -13 1 -21 6 -18 13 3
7 -3 10 -15 7 -12 -3 -19 0 -19 8 0 10 -3 10 -12 1 -13 -13 -32 -17 -25 -4 3
4 -2 13 -10 21 -13 12 -15 11 -9 -10 3 -13 3 -18 0 -11 -3 6 -20 12 -37 13
-18 0 -26 3 -19 6 25 10 11 19 -28 17 -22 -1 -40 2 -40 6 0 4 -14 10 -30 12
-17 3 -30 1 -30 -3 0 -10 -33 1 -41 14 -4 5 -37 9 -74 9 -45 1 -62 4 -53 10 8
6 -3 8 -34 4 -26 -3 -49 -2 -52 2 -7 11 -416 5 -430 -7 -10 -8 -31 -11 -118
-12 -10 0 -18 -5 -18 -11 0 -6 -11 -8 -25 -6 -14 3 -25 1 -25 -4 0 -6 -11 -7
-26 -4 -15 4 -23 3 -20 -2 3 -6 -5 -12 -19 -14 -13 -3 -22 -2 -20 2 2 4 -7 5
-20 2 -14 -2 -22 -9 -19 -14 4 -6 -1 -8 -14 -4 -13 4 -22 1 -26 -9 -3 -9 -16
-16 -28 -15 -13 1 -32 2 -43 1 -17 -1 -18 -3 -5 -12 12 -8 10 -9 -10 -7 -14 2
-31 -4 -38 -12 -10 -11 -11 -11 -6 -1 5 10 3 12 -7 5 -8 -4 -23 -10 -34 -11
-11 -2 -22 -8 -23 -13 -2 -6 -8 -8 -13 -4 -5 3 -9 -2 -9 -10 0 -12 -10 -16
-36 -16 -24 0 -33 -4 -28 -12 5 -8 2 -9 -9 -5 -12 4 -17 1 -17 -9 0 -11 -6
-15 -20 -11 -14 4 -20 0 -20 -11 0 -11 -3 -13 -8 -5 -5 8 -13 8 -32 -2 -14 -8
-21 -14 -16 -15 20 0 -30 -29 -52 -30 -13 0 -20 -4 -17 -10 3 -5 -3 -10 -15
-10 -12 0 -18 -4 -15 -10 3 -5 2 -10 -3 -10 -4 0 -18 -9 -30 -20 -14 -14 -22
-16 -22 -8 0 8 -5 6 -11 -5 -6 -9 -16 -14 -22 -11 -7 4 -9 4 -5 -1 4 -4 1 -14
-7 -21 -17 -17 -29 -18 -19 -2 4 7 3 8 -4 4 -7 -4 -12 -14 -12 -22 0 -8 -6
-14 -13 -12 -20 4 -55 -24 -49 -40 3 -10 1 -13 -7 -8 -14 9 -43 -12 -35 -25 3
-5 -3 -9 -14 -9 -21 0 -66 -43 -55 -53 3 -4 -1 -7 -11 -7 -9 0 -14 -4 -11 -10
3 -5 1 -10 -5 -10 -17 0 -40 -26 -32 -35 4 -5 2 -5 -4 -2 -6 4 -20 -3 -30 -15
-11 -12 -13 -18 -6 -14 6 4 12 3 12 -3 0 -5 -10 -11 -22 -13 -15 -2 -22 -9
-22 -21 1 -9 -4 -17 -10 -17 -16 0 -68 -54 -60 -62 3 -4 -4 -11 -15 -18 -12
-6 -21 -16 -21 -22 0 -6 -8 -17 -18 -25 -11 -9 -12 -12 -2 -8 8 4 4 -3 -10
-14 -14 -11 -20 -21 -15 -21 6 0 2 -5 -7 -11 -10 -5 -15 -16 -11 -25 3 -9 0
-14 -8 -12 -8 2 -13 -3 -12 -9 2 -7 -2 -13 -8 -13 -5 0 -17 -17 -26 -37 -8
-21 -20 -41 -25 -44 -5 -3 -11 -15 -12 -25 -2 -12 -10 -18 -21 -16 -10 2 -14
-1 -10 -7 3 -6 3 -11 0 -11 -8 0 -81 158 -106 230 -10 30 -16 63 -13 75 4 17
3 17 -6 5 -9 -12 -10 -9 -5 13 7 35 -2 70 -17 61 -7 -5 -9 6 -5 32 4 25 3 32
-2 19 -10 -24 -7 491 4 557 6 40 4 49 -16 69 -21 21 -23 21 -36 4 -7 -11 -13
-24 -13 -31 0 -7 -9 -16 -20 -19 -14 -4 -20 -15 -20 -36 0 -16 -4 -29 -10 -29
-6 0 -10 -27 -10 -60 0 -33 -4 -60 -10 -60 -13 0 -14 -434 -1 -458 5 -9 11
-37 14 -62 3 -25 6 -46 6 -47 1 -2 5 -3 10 -3 5 0 5 18 -1 42 -5 23 -7 51 -5
62 3 17 5 16 6 -5 2 -46 62 -240 102 -332 21 -48 33 -87 26 -84 -7 2 -12 8
-12 13 0 15 -27 75 -32 70 -2 -2 3 -18 12 -35 8 -17 12 -31 9 -31 -4 0 1 -9
11 -20 10 -11 22 -17 28 -13 6 3 7 1 3 -5 -4 -7 -3 -12 2 -12 13 0 33 -48 23
-55 -5 -2 -12 6 -15 20 -4 14 -10 25 -15 25 -5 0 0 -19 11 -42 26 -55 28 -66
10 -101 -8 -16 -14 -40 -14 -53 0 -13 -5 -24 -11 -24 -6 0 -7 -3 -4 -6 3 -4 2
-15 -3 -25 -6 -10 -11 -31 -12 -46 -1 -15 -5 -33 -10 -39 -5 -7 -11 -29 -13
-50 -2 -22 -5 -41 -6 -44 -1 -3 -4 -16 -5 -30 -2 -14 -6 -45 -10 -70 -7 -56
-9 -422 -1 -470 3 -19 8 -60 11 -89 4 -30 12 -61 18 -68 6 -8 8 -16 5 -20 -4
-3 -2 -12 4 -19 6 -8 9 -20 6 -29 -4 -8 -2 -17 4 -20 5 -4 7 -10 4 -15 -3 -5
0 -21 7 -37 13 -32 12 -28 22 -71 4 -17 12 -32 18 -32 6 0 8 -7 5 -15 -4 -8
-2 -17 4 -20 5 -4 7 -11 4 -16 -4 -5 -1 -9 4 -9 6 0 10 -3 10 -7 -4 -25 3 -43
16 -43 8 0 15 -5 15 -11 0 -5 -5 -7 -11 -3 -8 4 -8 0 0 -15 7 -11 15 -21 20
-21 4 0 8 -7 9 -15 1 -8 3 -22 4 -30 1 -8 8 -15 17 -15 14 0 14 -2 1 -10 -13
-8 -12 -10 3 -10 10 0 16 -4 13 -9 -4 -5 -1 -11 5 -13 6 -2 13 -15 14 -28 4
-40 5 -41 14 -36 5 3 11 -8 15 -24 3 -17 11 -29 18 -28 7 2 12 -4 13 -14 0 -9
14 -33 30 -54 17 -21 29 -41 28 -46 -2 -4 4 -8 12 -8 14 0 20 -12 16 -33 -1
-5 2 -6 7 -3 5 3 16 -10 25 -29 9 -19 23 -35 32 -35 8 0 15 -7 15 -15 0 -9 8
-19 17 -22 20 -7 49 -44 45 -55 -1 -5 7 -8 18 -8 11 0 20 -7 20 -15 0 -19 71
-96 82 -88 5 3 16 -4 24 -16 8 -12 21 -21 28 -21 8 0 17 -7 20 -16 6 -15 4
-15 -11 -3 -16 13 -17 12 -4 -3 7 -10 20 -18 28 -18 9 0 33 -18 54 -40 25 -26
48 -40 64 -40 14 0 25 -5 25 -11 0 -5 -5 -7 -12 -3 -7 4 -8 3 -4 -5 4 -6 12
-9 17 -6 5 4 9 1 9 -5 0 -7 6 -10 14 -7 17 7 58 -21 50 -34 -3 -6 0 -10 7 -8
24 3 39 -1 36 -9 -1 -4 2 -8 7 -9 5 -1 12 -5 15 -10 10 -13 49 -33 66 -33 8 0
15 -4 15 -10 0 -5 12 -10 26 -10 14 0 23 -4 19 -10 -4 -6 5 -10 20 -10 17 0
24 -4 19 -11 -4 -7 -1 -10 7 -7 7 2 29 -6 48 -19 31 -21 52 -28 74 -24 4 1 15
-6 24 -15 13 -12 17 -13 24 -2 6 8 9 9 9 1 0 -15 56 -34 77 -26 12 5 14 3 8
-7 -6 -10 -3 -12 13 -8 12 4 22 2 22 -2 0 -4 10 -6 22 -2 14 3 19 2 14 -6 -7
-12 17 -16 72 -14 12 1 20 -3 17 -8 -6 -10 26 -15 83 -12 20 1 31 -2 27 -8 -4
-6 6 -10 22 -11 15 -1 57 -4 93 -7 94 -8 372 -7 465 1 95 9 289 51 362 78 28
11 60 21 70 23 37 8 138 49 145 60 4 6 8 8 8 3 0 -4 19 3 43 15 23 12 44 23
47 23 26 5 275 154 290 174 3 4 19 16 36 26 68 42 247 210 317 296 15 19 39
48 53 64 13 17 37 48 52 70 15 22 30 41 35 43 4 2 7 9 7 16 0 6 12 29 27 51
15 22 37 58 49 80 12 23 26 50 32 60 37 65 119 272 128 321 3 15 7 31 10 36 5
8 11 31 20 78 2 14 7 39 11 55 13 60 13 58 28 180 5 42 6 353 0 395 -7 60 -13
100 -21 133 -4 18 -8 41 -10 52 -1 11 -3 20 -4 20 -2 0 -4 9 -6 20 -1 11 -5
31 -9 45 -3 14 -8 36 -11 49 -3 13 -12 37 -20 52 -8 16 -12 29 -8 29 4 0 1 7
-6 15 -7 8 -9 15 -5 15 4 0 2 7 -5 15 -7 8 -9 15 -6 15 4 0 1 10 -6 23 -16 29
-19 43 -25 97 -4 37 2 60 35 130 22 47 45 102 52 122 8 20 16 35 19 33 3 -1 7
11 8 29 1 17 9 51 17 76 l16 45 -6 -40 c-4 -22 -7 -45 -8 -52 -1 -7 -5 -16 -9
-19 -4 -4 -7 -12 -7 -18 0 -28 33 41 36 76 2 22 7 44 10 49 3 5 0 9 -5 9 -6 0
-11 9 -11 21 0 13 4 18 12 13 8 -5 9 -2 5 9 -3 9 -2 19 2 22 5 2 11 16 13 30
4 16 1 22 -6 18 -6 -4 -5 0 2 9 9 12 12 54 11 153 -1 83 -5 131 -11 123 -5 -8
-6 1 -2 25 4 26 3 37 -6 37 -10 0 -10 3 -1 14 9 11 9 16 1 21 -7 4 -10 16 -7
26 3 11 0 19 -6 19 -8 0 -7 3 1 9 11 7 10 9 -3 15 -12 4 -15 14 -12 35 3 17 0
32 -6 35 -7 2 -4 5 5 5 16 1 16 5 -3 47 -11 26 -20 57 -21 70 -1 13 -6 24 -11
24 -4 0 -7 8 -6 18 2 28 0 42 -8 41 -5 -1 -21 -4 -38 -8z m-4048 -363 c-3 -8
-6 -5 -6 6 -1 11 2 17 5 13 3 -3 4 -12 1 -19z m86 -218 c4 -72 3 -89 -3 -55
-8 51 -13 172 -6 164 2 -2 6 -51 9 -109z m-106 48 c-3 -8 -6 -5 -6 6 -1 11 2
17 5 13 3 -3 4 -12 1 -19z m853 12 c0 -5 -5 -10 -11 -10 -5 0 -7 5 -4 10 3 6
8 10 11 10 2 0 4 -4 4 -10z m-853 -142 c-2 -18 -4 -4 -4 32 0 36 2 50 4 33 2
-18 2 -48 0 -65z m10 -90 c-3 -7 -5 -2 -5 12 0 14 2 19 5 13 2 -7 2 -19 0 -25z
m130 -70 c-3 -8 -6 -5 -6 6 -1 11 2 17 5 13 3 -3 4 -12 1 -19z m387 -13 c-4
-8 -11 -15 -16 -15 -6 0 -5 6 2 15 7 8 14 15 16 15 2 0 1 -7 -2 -15z m853
-3021 c-3 -3 -12 -4 -19 -1 -8 3 -5 6 6 6 11 1 17 -2 13 -5z"/>
<path d="M250 3061 c0 -6 5 -13 10 -16 6 -4 8 -11 5 -16 -4 -5 -2 -9 3 -9 5 0
14 -10 20 -22 6 -13 11 -18 11 -11 1 12 -38 83 -45 83 -2 0 -4 -4 -4 -9z"/>
<path d="M590 796 c0 -2 8 -10 18 -17 15 -13 16 -12 3 4 -13 16 -21 21 -21 13z"/>
</g>
</svg>
